HIERARCHY
ROOT Hips
{
  OFFSET 13.6774 106.653 -34.4427
  CHANNELS 6 Xposition Yposition Zposition Zrotation Xrotation Yrotation
  JOINT ToSpine
  {
    OFFSET -2.69724 7.43032 -0.144315
    CHANNELS 3 Zrotation Xrotation Yrotation
    JOINT Spine
    {
      OFFSET -0.0310711 10.7595 1.96963
      CHANNELS 3 Zrotation Xrotation Yrotation
      JOINT Spine1
      {
        OFFSET 19.9056 3.91189 0.764692
        CHANNELS 3 Zrotation Xrotation Yrotation
        JOINT Neck
        {
          OFFSET 25.9749 7.03908 -0.130764
          CHANNELS 3 Zrotation Xrotation Yrotation
          JOINT Head
          {
            OFFSET 9.52751 0.295786 -0.907742
            CHANNELS 3 Zrotation Xrotation Yrotation
            End Site
            {
              OFFSET 16.4037 0.713936 2.7358
            }
          }
        }
        JOINT LeftShoulder
        {
          OFFSET 17.7449 4.33886 11.7777
          CHANNELS 3 Zrotation Xrotation Yrotation
          JOINT LeftArm
          {
            OFFSET 0.911315 1.27913 9.80584
            CHANNELS 3 Zrotation Xrotation Yrotation
            JOINT LeftForeArm
            {
              OFFSET 28.6126 1.18197 -3.53199
              CHANNELS 3 Zrotation Xrotation Yrotation
              JOINT LeftHand
              {
                OFFSET 27.5088 0.0218783 0.327423
                CHANNELS 3 Zrotation Xrotation Yrotation
                End Site
                {
                  OFFSET 18.6038 -0.000155887 0.382096
                }
              }
            }
          }
        }
        JOINT RightShoulder
        {
          OFFSET 17.1009 2.89543 -12.2328
          CHANNELS 3 Zrotation Xrotation Yrotation
          JOINT RightArm
          {
            OFFSET 1.4228 0.178766 -10.211
            CHANNELS 3 Zrotation Xrotation Yrotation
            JOINT RightForeArm
            {
              OFFSET 28.733 1.87905 2.64907
              CHANNELS 3 Zrotation Xrotation Yrotation
              JOINT RightHand
              {
                OFFSET 27.4588 0.290562 -0.101845
                CHANNELS 3 Zrotation Xrotation Yrotation
                End Site
                {
                  OFFSET 17.8396 -0.255518 -0.000602873
                }
              }
            }
          }
        }
      }
    }
  }
  JOINT LeftUpLeg
  {
    OFFSET -5.61296 -2.22332 -10.2353
    CHANNELS 3 Zrotation Xrotation Yrotation
    JOINT LeftLeg
    {
      OFFSET 2.56703 -44.7417 -7.93097
      CHANNELS 3 Zrotation Xrotation Yrotation
      JOINT LeftFoot
      {
        OFFSET 3.16933 -46.5642 -3.96578
        CHANNELS 3 Zrotation Xrotation Yrotation
        JOINT LeftToeBase
        {
          OFFSET 0.346054 -6.02161 12.8035
          CHANNELS 3 Zrotation Xrotation Yrotation
          End Site
          {
            OFFSET 0.134235 -1.35082 5.13018
          }
        }
      }
    }
  }
  JOINT RightUpLeg
  {
    OFFSET -5.7928 -1.72406 10.6446
    CHANNELS 3 Zrotation Xrotation Yrotation
    JOINT RightLeg
    {
      OFFSET -2.57161 -44.7178 -7.85259
      CHANNELS 3 Zrotation Xrotation Yrotation
      JOINT RightFoot
      {
        OFFSET -3.10148 -46.5936 -4.03391
        CHANNELS 3 Zrotation Xrotation Yrotation
        JOINT RightToeBase
        {
          OFFSET -0.0828122 -6.13587 12.8035
          CHANNELS 3 Zrotation Xrotation Yrotation
          End Site
          {
            OFFSET -0.131328 -1.35082 5.13018
          }
        }
      }
    }
  }
}
MOTION
Frames: 14
Frame Time: 0.03333333333333333
0.0000 93.1000 0.0000 49.0218 -41.5092 -30.2144 -70.6737 0.4893 87.9347 116.6971 73.8788 -31.0617 -7.2934 25.2954 4.3328 -164.9610 24.4893 177.2962 -156.1487 64.1374 -176.2581 0.6594 -12.1150 -30.9826 -77.4683 53.1825 -63.9034 13.1975 5.0232 -67.4032 -0.2685 -0.3832 -0.3956 -1.9467 5.8970 41.3524 -69.2028 -29.5331 87.7942 18.3615 -6.0051 73.9143 0.1839 0.3919 -0.0280 -27.3299 -4.8178 89.9318 -6.5106 56.4410 -7.3629 4.3409 -21.2114 -2.0954 6.3862 -17.3121 26.0432 -59.3487 -2.5144 92.3908 3.8675 54.7622 2.2994 -4.7689 3.6885 0.2007 1.4995 -10.5635 -5.7066 
0.0000 93.1000 0.0000 47.0914 -43.2557 -31.3989 -70.5807 0.2394 87.7924 121.1636 74.4083 -33.8111 -8.7065 26.4160 3.7752 -165.0283 24.3418 176.9218 -157.6238 63.3435 -175.9084 0.4586 -11.6195 -29.8201 -79.2787 54.8744 -58.0848 11.1065 5.9328 -62.1369 -0.2400 -0.0823 -0.2756 -1.9895 6.3643 41.0723 -68.1338 -29.0540 91.8533 21.2467 -5.9418 75.8561 0.0398 0.0513 0.4304 -22.8151 -1.9365 89.9227 -4.8990 55.5836 -6.8872 3.2635 -18.4898 -1.9831 6.6269 -17.4309 22.9120 -64.1483 -1.1095 92.8386 1.7343 44.0073 1.2538 -3.6494 3.2626 0.2037 2.1773 -16.7156 0.0411 
0.0000 93.1000 0.0000 44.9460 -45.1380 -32.9409 -70.6243 0.1449 87.8091 124.7515 74.7965 -35.2842 -9.6599 27.5963 3.3296 -166.0632 24.3293 177.2875 -158.3006 63.2166 -174.8934 0.5832 -11.2521 -29.8059 -79.8049 55.9972 -55.9885 10.5189 7.7025 -55.9815 0.2016 -0.5289 -0.6450 -2.5059 7.0321 40.3326 -69.3660 -28.7336 95.7219 23.4236 -5.1460 78.5365 -0.0505 0.5369 -0.1962 -17.9969 0.6572 90.0350 -4.8293 55.1786 -4.3063 2.4943 -18.3373 -1.3706 5.5214 -14.2203 16.6971 -66.5628 -0.3072 92.3449 0.7969 36.8610 0.5649 -6.1534 3.0454 0.2806 3.1199 -26.8573 3.5735 
0.0000 93.1000 0.0000 42.9160 -45.4194 -35.7578 -70.4865 -0.5155 87.7342 123.1449 75.3600 -35.1654 -9.2184 26.9903 2.6751 -168.2197 23.2214 178.6198 -159.3503 62.6116 -173.9245 0.0707 -11.5713 -30.0669 -78.2050 57.0762 -56.1422 10.3691 9.0748 -49.4808 0.1679 -0.1270 -0.4101 -2.7604 7.0920 40.1897 -70.5941 -28.7363 99.0423 24.6985 -4.6639 79.8315 0.0519 0.1230 -0.2181 -14.3822 3.2805 91.3826 -4.9200 53.6266 -3.7407 2.9640 -18.5202 -1.6101 5.7522 -15.9904 15.7502 -65.1524 -1.2309 88.5626 -1.9989 32.4601 5.2018 -3.2006 -3.2101 -0.1666 2.8535 -30.9833 3.6515 
0.0000 93.1000 0.0000 44.1728 -46.3922 -35.6100 -70.6279 -0.6296 87.8530 125.1492 74.1898 -37.9598 -8.6305 25.6027 3.3805 -168.0765 23.0465 178.8806 -158.3998 62.0129 -173.0023 -0.2429 -11.9723 -31.2746 -71.9064 57.0596 -63.2009 7.8752 9.2089 -41.9287 0.2068 0.4435 0.1472 -2.5546 7.1019 40.8065 -71.4172 -28.1700 101.5894 22.3485 -3.5793 80.8600 0.0517 -0.5120 -0.2677 -13.6488 5.2938 92.8099 -4.0401 51.3046 -5.3759 3.3275 -16.9829 -2.2374 6.8649 -17.3073 15.3148 -63.8908 -2.0173 85.7244 -1.0667 34.0983 9.8064 -5.0228 -10.7038 0.4888 2.9994 -27.9647 -5.4546 
0.0000 93.1000 0.0000 48.2209 -46.1954 -34.6783 -70.6951 -0.9834 87.9575 127.3145 72.5796 -42.6973 -8.3538 24.7774 3.7380 -166.9693 22.2634 178.5608 -155.5803 62.0757 -175.1054 -0.6172 -13.0364 -32.7480 -64.4781 56.6567 -71.2491 7.3739 10.7714 -34.0403 0.0908 0.7538 0.6787 -2.7271 7.0982 42.4278 -73.6210 -26.8679 101.6287 21.6560 -4.1238 80.6124 0.0700 -0.7666 -0.1140 -14.8317 5.4112 94.4174 -3.6848 46.5423 -7.0910 1.6039 -15.9724 -2.0104 6.4293 -16.8964 16.8952 -62.9631 -3.5444 82.3625 -1.2904 35.3364 15.0810 -6.3007 -17.2315 0.7300 2.6227 -23.9709 -10.5659 
0.0000 93.1000 0.0000 49.2080 -47.0174 -32.6704 -70.6673 -0.5613 88.1536 129.1809 71.4814 -42.8097 -7.9402 24.4721 3.1209 -163.9120 22.2699 177.7685 -154.7890 62.1475 -174.9611 -0.4744 -13.2757 -33.2567 -64.4609 55.5450 -73.1984 7.7498 15.8341 -29.1127 -0.2221 0.7549 0.5097 -2.5215 6.9084 42.9721 -74.5672 -25.8614 100.2074 21.0219 -5.0668 78.4284 0.1159 -0.7236 0.4762 -15.5618 6.7058 94.7730 -3.7567 43.4844 -7.9934 0.3821 -14.6434 -2.2712 6.8669 -17.4009 17.3302 -60.9781 -1.1291 84.7364 -0.4508 35.0731 9.6367 -6.2386 -23.5103 1.4811 2.2757 -15.3932 -13.8988 
0.0000 93.1000 0.0000 49.4922 -47.2191 -32.8256 -70.7198 -0.1727 88.1960 125.5457 71.2241 -40.4665 -7.1258 24.0173 3.7511 -163.1231 22.2071 177.6138 -154.4245 62.0320 -174.2315 -0.1551 -13.1696 -33.1245 -69.7889 54.0793 -68.1493 7.0646 18.1101 -27.9322 -0.1011 0.4587 0.1909 -2.4372 6.9212 43.4819 -74.4204 -24.9628 97.7137 19.7450 -5.3633 76.7594 0.1779 -0.4194 0.5110 -17.3354 7.0607 95.8525 -3.9521 43.1030 -7.0457 -1.1470 -12.7206 -2.0657 7.2527 -17.2296 16.6129 -58.4932 0.9740 85.9481 -0.4744 35.2161 3.6923 -6.3591 -25.7161 1.8471 2.0351 -10.8827 -15.7341 
0.0000 93.1000 0.0000 52.7349 -46.5642 -30.5156 -70.8208 -0.3163 88.2186 124.0543 71.2697 -38.5888 -6.8953 23.3221 4.1047 -162.0629 22.3653 176.0530 -152.7662 61.3580 -176.8898 -0.2365 -13.0490 -32.3834 -72.0233 53.6927 -66.0600 6.8418 14.4120 -29.1584 -0.2957 0.5554 0.2554 -2.5029 6.3215 45.2055 -74.7461 -23.8578 94.6843 18.8403 -5.9793 73.6889 0.0463 -0.5085 0.4033 -18.8524 6.9294 95.7032 -4.1748 44.8433 -7.5055 -0.9705 -10.5011 -1.7569 6.1097 -16.3895 17.0483 -57.3724 1.3706 83.2742 -0.3989 34.5844 4.6474 -7.7434 -24.6577 1.6855 1.9559 -9.5787 -16.1558 
0.0000 93.1000 0.0000 52.7584 -46.1123 -29.2066 -70.8094 -0.6609 88.2851 123.0967 71.5410 -35.8091 -6.4477 22.9770 4.3319 -160.0754 23.3265 177.1184 -152.0299 61.8513 -176.6438 -0.3840 -13.1411 -31.9425 -73.9794 52.7000 -65.0462 7.3977 12.2957 -31.2869 0.0063 0.3753 0.2634 -3.0143 6.1444 45.9521 -73.2986 -23.5568 90.9192 18.3179 -6.8302 70.8223 -0.3194 -0.3193 0.2749 -21.9114 6.5629 95.2287 -4.4070 48.3363 -6.6700 -1.2261 -10.5061 -1.1771 6.7330 -15.7724 15.3268 -55.9592 1.8761 81.2838 0.8588 34.0600 6.4394 -7.3032 -22.9311 0.8957 1.6966 -8.4683 -15.5906 
0.0000 93.1000 0.0000 53.0796 -46.9659 -28.8502 -70.7570 -0.6972 88.1818 119.5728 72.1270 -33.0574 -5.7728 22.6671 4.2551 -158.3700 23.2703 174.5064 -148.9540 62.1113 -180.0747 -0.2837 -13.1121 -31.8653 -74.1709 51.5084 -66.0114 6.9505 11.5042 -32.3388 -0.0822 0.3186 0.1816 -2.9375 6.2967 46.5072 -72.4878 -24.0015 87.4276 17.7233 -7.9781 66.8066 -0.2786 -0.2975 -0.2146 -25.0350 6.9104 94.9132 -4.5015 52.0989 -5.9369 -2.0278 -9.5722 -1.0399 6.2306 -16.2326 15.5868 -54.2830 2.1166 80.8187 0.6506 34.0662 6.4731 -6.0134 -21.0388 0.5294 1.4267 -7.3695 -16.0744 
0.0000 93.1000 0.0000 54.0733 -47.5646 -28.9705 -70.7515 -0.0088 88.2623 121.3002 72.2024 -35.4738 -6.3515 22.6873 5.6727 -157.3124 22.8338 174.2207 -149.4148 61.6508 -178.3671 0.3466 -12.9276 -31.0378 -74.1493 51.0565 -67.2017 7.5534 12.4929 -34.9354 0.1133 -0.0820 -0.2045 -2.6058 6.3730 46.2990 -72.0704 -25.1354 85.5811 16.5884 -9.4443 62.6780 0.1995 0.1627 -0.1886 -29.6803 6.2333 96.3872 -5.1587 55.1898 -3.9099 -1.8435 -8.0480 -0.9138 6.8374 -16.6174 14.7640 -52.8741 1.5385 81.0078 0.6962 34.1362 6.0015 -6.1026 -20.1099 0.8800 2.6619 -10.8463 -17.9487 
0.0000 93.1000 0.0000 55.0768 -46.8822 -27.9065 -70.7395 -0.2815 88.1640 117.4827 72.2080 -31.2515 -5.5269 22.7764 4.8721 -157.2487 23.3149 173.8847 -151.4829 61.6632 -178.2443 0.0796 -13.0915 -31.1835 -73.8024 48.7908 -68.2048 8.6041 11.1962 -38.8896 -0.2207 0.3818 0.0538 -2.3837 6.1568 46.0175 -72.1252 -25.8003 82.7966 17.3718 -11.5786 59.8852 0.2915 -0.3625 0.1631 -34.0051 4.9477 97.0044 -5.6071 58.3180 -4.9035 -2.1788 -7.0559 -1.0610 6.6476 -17.3145 16.8762 -53.1093 1.1958 80.1249 0.6243 32.2986 8.4817 -6.4501 -18.9706 0.9237 1.4452 -15.8391 -18.4805 
0.0000 93.1000 0.0000 55.8902 -47.2999 -26.8304 -70.7446 -0.8031 88.1317 114.3108 72.1141 -27.1153 -4.5451 22.0335 4.3482 -157.2676 23.1808 172.8996 -150.3150 61.8953 -179.7028 -0.3562 -13.0540 -31.0292 -74.2553 46.9417 -68.1099 9.2970 10.6991 -41.9387 -0.2209 0.9143 0.2705 -2.2847 6.2205 45.2803 -71.4043 -26.7677 80.6185 16.8634 -12.2307 56.7507 0.2515 -0.9613 0.2982 -38.9492 5.0892 97.3302 -5.7379 60.4805 -4.2858 -3.0800 -9.2979 -1.2250 3.9918 -12.2637 17.0137 -52.0219 1.4765 79.1219 1.3866 31.5217 8.9812 -5.8851 -19.3155 0.7394 1.3356 -20.4680 -20.2487 
